<?xml version="1.0" encoding="UTF-8" standalone="no"?>
<!DOCTYPE svg PUBLIC "-//W3C//DTD SVG 1.1//EN" "http://www.w3.org/Graphics/SVG/1.1/DTD/svg11.dtd">
<svg width="100%" height="100%" viewBox="0 0 512 512" version="1.1" xmlns="http://www.w3.org/2000/svg" xmlns:xlink="http://www.w3.org/1999/xlink" xml:space="preserve" xmlns:serif="http://www.serif.com/" style="fill-rule:evenodd;clip-rule:evenodd;stroke-linejoin:round;stroke-miterlimit:2;">
    <path d="M488,152C487.986,99.332 444.642,56 391.974,56C376.61,56 361.467,59.688 347.823,66.752C325.039,39.663 291.397,24 256,24C220.603,24 186.961,39.663 164.177,66.752C150.529,59.682 135.381,55.991 120.011,55.991C67.339,55.991 23.996,99.334 23.996,152.006C23.996,197.39 56.173,236.878 100.622,246.043L128,408L384,408L411.378,246.043C455.824,236.87 487.996,197.382 488,152Z" style="fill:rgb(118,118,118);fill-rule:nonzero;"/>
    <path d="M191.992,416C187.821,415.995 184.318,412.73 184.021,408.57L176.021,296.57C176.012,296.414 176.007,296.259 176.007,296.103C176.007,291.714 179.619,288.103 184.007,288.103C188.143,288.103 191.631,291.309 191.979,295.43L199.979,407.43C200.291,411.807 196.947,415.666 192.57,415.979C192.378,415.993 192.185,416 191.992,416ZM256,416C251.611,416 248,412.389 248,408L248,312C248,307.611 251.611,304 256,304C260.389,304 264,307.611 264,312L264,408C264,412.389 260.389,416 256,416ZM320.008,416C319.816,416 319.624,415.994 319.43,415.979C315.053,415.666 311.709,411.807 312.021,407.43L320.021,295.43C320.369,291.309 323.857,288.103 327.993,288.103C332.381,288.103 335.993,291.714 335.993,296.103C335.993,296.259 335.988,296.414 335.979,296.57L327.979,408.57C327.682,412.73 324.179,415.995 320.008,416ZM216,136C216,138.69 215.88,141.36 215.67,144C212.925,111.148 193.447,81.924 164.18,66.75C167.202,63.152 170.438,59.739 173.87,56.53C200.212,74.366 216.022,104.188 216,136ZM376,120C376.002,124.008 375.802,128.013 375.4,132C373.023,107.963 363.403,85.205 347.82,66.75C351.956,64.605 356.245,62.767 360.65,61.25C370.746,79.181 376.035,99.422 376,120Z" style="fill:rgb(96,96,96);fill-rule:nonzero;"/>
    <rect x="128" y="408" width="256" height="80" style="fill:rgb(51,51,51);fill-rule:nonzero;"/>
</svg>
